<mxfile host="app.diagrams.net" modified="2023-07-26T15:29:24.651Z" agent="Mozilla/5.0 (Windows NT 10.0; Win64; x64) AppleWebKit/537.36 (KHTML, like Gecko) Chrome/114.0.0.0 Safari/537.36" etag="rpowb_kTZmi6hW3rwTC4" version="21.5.0" type="device">
  <diagram name="Page-1" id="zdXPjUyK78DCDd7Juj2T">
    <mxGraphModel dx="2415" dy="1358" grid="0" gridSize="10" guides="1" tooltips="1" connect="1" arrows="1" fold="1" page="0" pageScale="1" pageWidth="1390" pageHeight="980" math="0" shadow="0">
      <root>
        <mxCell id="0" />
        <mxCell id="1" parent="0" />
        <mxCell id="j5BsTnonX4kaGbaKC7nh-1" value="Department" style="whiteSpace=wrap;html=1;align=center;fontSize=16;" vertex="1" parent="1">
          <mxGeometry x="-375" y="11" width="126" height="51" as="geometry" />
        </mxCell>
        <mxCell id="j5BsTnonX4kaGbaKC7nh-2" value="Dep No" style="ellipse;whiteSpace=wrap;html=1;align=center;fontStyle=4;fontSize=16;" vertex="1" parent="1">
          <mxGeometry x="-481" y="-69" width="100" height="40" as="geometry" />
        </mxCell>
        <mxCell id="j5BsTnonX4kaGbaKC7nh-8" value="" style="endArrow=none;html=1;rounded=0;fontSize=12;startSize=8;endSize=8;curved=1;entryX=0;entryY=0;entryDx=0;entryDy=0;" edge="1" parent="1" target="j5BsTnonX4kaGbaKC7nh-1">
          <mxGeometry relative="1" as="geometry">
            <mxPoint x="-418" y="-30" as="sourcePoint" />
            <mxPoint x="-258" y="-30" as="targetPoint" />
          </mxGeometry>
        </mxCell>
        <mxCell id="j5BsTnonX4kaGbaKC7nh-9" style="edgeStyle=none;curved=1;rounded=0;orthogonalLoop=1;jettySize=auto;html=1;exitX=1;exitY=0;exitDx=0;exitDy=0;fontSize=12;startSize=8;endSize=8;" edge="1" parent="1" source="j5BsTnonX4kaGbaKC7nh-1" target="j5BsTnonX4kaGbaKC7nh-1">
          <mxGeometry relative="1" as="geometry" />
        </mxCell>
        <mxCell id="j5BsTnonX4kaGbaKC7nh-10" value="" style="endArrow=none;html=1;rounded=0;fontSize=12;startSize=8;endSize=8;curved=1;exitX=1;exitY=0;exitDx=0;exitDy=0;entryX=0.33;entryY=0.98;entryDx=0;entryDy=0;entryPerimeter=0;" edge="1" parent="1" source="j5BsTnonX4kaGbaKC7nh-1">
          <mxGeometry relative="1" as="geometry">
            <mxPoint x="-344" y="-22" as="sourcePoint" />
            <mxPoint x="-207" y="-33.799999999999955" as="targetPoint" />
          </mxGeometry>
        </mxCell>
        <mxCell id="j5BsTnonX4kaGbaKC7nh-11" value="Dep Name" style="ellipse;whiteSpace=wrap;html=1;align=center;fontSize=16;" vertex="1" parent="1">
          <mxGeometry x="-244" y="-72" width="100" height="40" as="geometry" />
        </mxCell>
        <mxCell id="j5BsTnonX4kaGbaKC7nh-12" value="" style="endArrow=none;html=1;rounded=0;fontSize=12;startSize=8;endSize=8;curved=1;exitX=0.5;exitY=1;exitDx=0;exitDy=0;" edge="1" parent="1" source="j5BsTnonX4kaGbaKC7nh-1">
          <mxGeometry relative="1" as="geometry">
            <mxPoint x="-346" y="203" as="sourcePoint" />
            <mxPoint x="-312" y="208" as="targetPoint" />
          </mxGeometry>
        </mxCell>
        <mxCell id="j5BsTnonX4kaGbaKC7nh-13" value="Control" style="shape=rhombus;perimeter=rhombusPerimeter;whiteSpace=wrap;html=1;align=center;fontSize=16;" vertex="1" parent="1">
          <mxGeometry x="-372" y="209" width="120" height="60" as="geometry" />
        </mxCell>
        <mxCell id="j5BsTnonX4kaGbaKC7nh-15" value="Relationship" style="shape=rhombus;perimeter=rhombusPerimeter;whiteSpace=wrap;html=1;align=center;fontSize=16;" vertex="1" parent="1">
          <mxGeometry x="-129" y="2" width="120" height="60" as="geometry" />
        </mxCell>
        <mxCell id="j5BsTnonX4kaGbaKC7nh-16" value="Start Date" style="ellipse;whiteSpace=wrap;html=1;align=center;fontSize=16;" vertex="1" parent="1">
          <mxGeometry x="-117" y="-76" width="100" height="40" as="geometry" />
        </mxCell>
        <mxCell id="j5BsTnonX4kaGbaKC7nh-17" value="" style="endArrow=none;html=1;rounded=0;fontSize=12;startSize=8;endSize=8;curved=1;" edge="1" parent="1">
          <mxGeometry relative="1" as="geometry">
            <mxPoint x="-69" y="-36" as="sourcePoint" />
            <mxPoint x="-69" as="targetPoint" />
          </mxGeometry>
        </mxCell>
        <mxCell id="j5BsTnonX4kaGbaKC7nh-18" value="" style="endArrow=none;html=1;rounded=0;fontSize=12;startSize=8;endSize=8;curved=1;entryX=0;entryY=0.5;entryDx=0;entryDy=0;" edge="1" parent="1" target="j5BsTnonX4kaGbaKC7nh-15">
          <mxGeometry relative="1" as="geometry">
            <mxPoint x="-248" y="36" as="sourcePoint" />
            <mxPoint x="-88" y="36" as="targetPoint" />
          </mxGeometry>
        </mxCell>
        <mxCell id="j5BsTnonX4kaGbaKC7nh-19" value="1" style="resizable=0;html=1;whiteSpace=wrap;align=right;verticalAlign=bottom;fontSize=16;" connectable="0" vertex="1" parent="j5BsTnonX4kaGbaKC7nh-18">
          <mxGeometry x="1" relative="1" as="geometry" />
        </mxCell>
        <mxCell id="j5BsTnonX4kaGbaKC7nh-20" value="" style="endArrow=none;html=1;rounded=0;fontSize=12;startSize=8;endSize=8;curved=1;" edge="1" parent="1">
          <mxGeometry relative="1" as="geometry">
            <mxPoint x="-11" y="32" as="sourcePoint" />
            <mxPoint x="108" y="32" as="targetPoint" />
          </mxGeometry>
        </mxCell>
        <mxCell id="j5BsTnonX4kaGbaKC7nh-21" value="N" style="resizable=0;html=1;whiteSpace=wrap;align=right;verticalAlign=bottom;fontSize=16;" connectable="0" vertex="1" parent="j5BsTnonX4kaGbaKC7nh-20">
          <mxGeometry x="1" relative="1" as="geometry" />
        </mxCell>
        <mxCell id="j5BsTnonX4kaGbaKC7nh-26" value="Work" style="shape=rhombus;perimeter=rhombusPerimeter;whiteSpace=wrap;html=1;align=center;fontSize=16;" vertex="1" parent="1">
          <mxGeometry x="99" y="209" width="120" height="60" as="geometry" />
        </mxCell>
        <mxCell id="j5BsTnonX4kaGbaKC7nh-27" value="Employee" style="whiteSpace=wrap;html=1;align=center;fontSize=16;" vertex="1" parent="1">
          <mxGeometry x="111" y="2" width="185" height="65" as="geometry" />
        </mxCell>
        <mxCell id="j5BsTnonX4kaGbaKC7nh-28" value="Ss no" style="ellipse;whiteSpace=wrap;html=1;align=center;fontStyle=4;fontSize=16;" vertex="1" parent="1">
          <mxGeometry x="395" y="-64" width="100" height="40" as="geometry" />
        </mxCell>
        <mxCell id="j5BsTnonX4kaGbaKC7nh-29" value="Sex" style="ellipse;whiteSpace=wrap;html=1;align=center;fontSize=16;" vertex="1" parent="1">
          <mxGeometry x="321" y="-147" width="100" height="40" as="geometry" />
        </mxCell>
        <mxCell id="j5BsTnonX4kaGbaKC7nh-30" value="Birthdate" style="ellipse;whiteSpace=wrap;html=1;align=center;fontSize=16;" vertex="1" parent="1">
          <mxGeometry x="96" y="-187" width="100" height="40" as="geometry" />
        </mxCell>
        <mxCell id="j5BsTnonX4kaGbaKC7nh-31" value="Address" style="ellipse;whiteSpace=wrap;html=1;align=center;fontSize=16;" vertex="1" parent="1">
          <mxGeometry x="11" y="-107" width="100" height="40" as="geometry" />
        </mxCell>
        <mxCell id="j5BsTnonX4kaGbaKC7nh-32" value="" style="endArrow=none;html=1;rounded=0;fontSize=12;startSize=8;endSize=8;curved=1;entryX=0;entryY=0;entryDx=0;entryDy=0;" edge="1" parent="1" target="j5BsTnonX4kaGbaKC7nh-27">
          <mxGeometry relative="1" as="geometry">
            <mxPoint x="65" y="-64" as="sourcePoint" />
            <mxPoint x="215" y="-33" as="targetPoint" />
          </mxGeometry>
        </mxCell>
        <mxCell id="j5BsTnonX4kaGbaKC7nh-34" value="" style="endArrow=none;html=1;rounded=0;fontSize=12;startSize=8;endSize=8;curved=1;entryX=0.5;entryY=0;entryDx=0;entryDy=0;exitX=0.5;exitY=1;exitDx=0;exitDy=0;" edge="1" parent="1" source="j5BsTnonX4kaGbaKC7nh-30" target="j5BsTnonX4kaGbaKC7nh-27">
          <mxGeometry relative="1" as="geometry">
            <mxPoint x="202" y="-136" as="sourcePoint" />
            <mxPoint x="197" y="-7" as="targetPoint" />
          </mxGeometry>
        </mxCell>
        <mxCell id="j5BsTnonX4kaGbaKC7nh-35" value="" style="endArrow=none;html=1;rounded=0;fontSize=12;startSize=8;endSize=8;curved=1;exitX=0;exitY=1;exitDx=0;exitDy=0;entryX=0.75;entryY=0;entryDx=0;entryDy=0;" edge="1" parent="1" source="j5BsTnonX4kaGbaKC7nh-29" target="j5BsTnonX4kaGbaKC7nh-27">
          <mxGeometry relative="1" as="geometry">
            <mxPoint x="78" y="140" as="sourcePoint" />
            <mxPoint x="238" y="140" as="targetPoint" />
          </mxGeometry>
        </mxCell>
        <mxCell id="j5BsTnonX4kaGbaKC7nh-36" value="" style="endArrow=none;html=1;rounded=0;fontSize=12;startSize=8;endSize=8;curved=1;entryX=0;entryY=0.5;entryDx=0;entryDy=0;exitX=1;exitY=0;exitDx=0;exitDy=0;" edge="1" parent="1" source="j5BsTnonX4kaGbaKC7nh-27" target="j5BsTnonX4kaGbaKC7nh-28">
          <mxGeometry relative="1" as="geometry">
            <mxPoint x="301" y="26" as="sourcePoint" />
            <mxPoint x="395" y="-26" as="targetPoint" />
          </mxGeometry>
        </mxCell>
        <mxCell id="j5BsTnonX4kaGbaKC7nh-41" value="" style="endArrow=none;html=1;rounded=0;fontSize=12;startSize=8;endSize=8;curved=1;exitX=0.5;exitY=0;exitDx=0;exitDy=0;entryX=0.25;entryY=1;entryDx=0;entryDy=0;" edge="1" parent="1" source="j5BsTnonX4kaGbaKC7nh-26" target="j5BsTnonX4kaGbaKC7nh-27">
          <mxGeometry relative="1" as="geometry">
            <mxPoint x="212" y="133" as="sourcePoint" />
            <mxPoint x="203" y="89" as="targetPoint" />
          </mxGeometry>
        </mxCell>
        <mxCell id="j5BsTnonX4kaGbaKC7nh-42" value="N" style="resizable=0;html=1;whiteSpace=wrap;align=right;verticalAlign=bottom;fontSize=16;" connectable="0" vertex="1" parent="j5BsTnonX4kaGbaKC7nh-41">
          <mxGeometry x="1" relative="1" as="geometry" />
        </mxCell>
        <mxCell id="j5BsTnonX4kaGbaKC7nh-44" value="" style="endArrow=none;html=1;rounded=0;fontSize=12;startSize=8;endSize=8;curved=1;exitX=1;exitY=0.5;exitDx=0;exitDy=0;" edge="1" parent="1" source="j5BsTnonX4kaGbaKC7nh-25" target="j5BsTnonX4kaGbaKC7nh-26">
          <mxGeometry relative="1" as="geometry">
            <mxPoint x="-57" y="148" as="sourcePoint" />
            <mxPoint x="103" y="148" as="targetPoint" />
            <Array as="points" />
          </mxGeometry>
        </mxCell>
        <mxCell id="j5BsTnonX4kaGbaKC7nh-46" value="N" style="resizable=0;html=1;whiteSpace=wrap;align=right;verticalAlign=bottom;fontSize=16;" connectable="0" vertex="1" parent="j5BsTnonX4kaGbaKC7nh-44">
          <mxGeometry x="1" relative="1" as="geometry" />
        </mxCell>
        <mxCell id="j5BsTnonX4kaGbaKC7nh-47" value="" style="endArrow=none;html=1;rounded=0;fontSize=12;startSize=8;endSize=8;curved=1;exitX=1;exitY=0.5;exitDx=0;exitDy=0;" edge="1" parent="1" source="j5BsTnonX4kaGbaKC7nh-13" target="j5BsTnonX4kaGbaKC7nh-25">
          <mxGeometry relative="1" as="geometry">
            <mxPoint x="-252" y="239" as="sourcePoint" />
            <mxPoint x="143" y="239" as="targetPoint" />
            <Array as="points">
              <mxPoint x="-24" y="239" />
            </Array>
          </mxGeometry>
        </mxCell>
        <mxCell id="j5BsTnonX4kaGbaKC7nh-48" value="M" style="resizable=0;html=1;whiteSpace=wrap;align=left;verticalAlign=bottom;fontSize=16;" connectable="0" vertex="1" parent="j5BsTnonX4kaGbaKC7nh-47">
          <mxGeometry x="-1" relative="1" as="geometry" />
        </mxCell>
        <mxCell id="j5BsTnonX4kaGbaKC7nh-25" value="Project" style="whiteSpace=wrap;html=1;align=center;fontSize=16;" vertex="1" parent="1">
          <mxGeometry x="-150" y="211" width="159" height="58" as="geometry" />
        </mxCell>
        <mxCell id="j5BsTnonX4kaGbaKC7nh-50" value="Supervise" style="shape=rhombus;perimeter=rhombusPerimeter;whiteSpace=wrap;html=1;align=center;fontSize=16;" vertex="1" parent="1">
          <mxGeometry x="269" y="299" width="120" height="60" as="geometry" />
        </mxCell>
        <mxCell id="j5BsTnonX4kaGbaKC7nh-51" value="" style="endArrow=none;html=1;rounded=0;fontSize=12;startSize=8;endSize=8;curved=1;exitX=0.625;exitY=0.99;exitDx=0;exitDy=0;exitPerimeter=0;entryX=0;entryY=0.5;entryDx=0;entryDy=0;edgeStyle=orthogonalEdgeStyle;" edge="1" parent="1" source="j5BsTnonX4kaGbaKC7nh-27" target="j5BsTnonX4kaGbaKC7nh-50">
          <mxGeometry relative="1" as="geometry">
            <mxPoint x="256" y="223" as="sourcePoint" />
            <mxPoint x="416" y="223" as="targetPoint" />
          </mxGeometry>
        </mxCell>
        <mxCell id="j5BsTnonX4kaGbaKC7nh-53" value="" style="endArrow=none;html=1;rounded=0;fontSize=12;startSize=8;endSize=8;curved=1;exitX=1;exitY=0.5;exitDx=0;exitDy=0;" edge="1" parent="1" source="j5BsTnonX4kaGbaKC7nh-50">
          <mxGeometry relative="1" as="geometry">
            <mxPoint x="331" y="261" as="sourcePoint" />
            <mxPoint x="303" y="86" as="targetPoint" />
          </mxGeometry>
        </mxCell>
        <mxCell id="j5BsTnonX4kaGbaKC7nh-54" value="1" style="resizable=0;html=1;whiteSpace=wrap;align=right;verticalAlign=bottom;fontSize=16;" connectable="0" vertex="1" parent="j5BsTnonX4kaGbaKC7nh-53">
          <mxGeometry x="1" relative="1" as="geometry" />
        </mxCell>
        <mxCell id="j5BsTnonX4kaGbaKC7nh-56" value="Depend" style="shape=rhombus;double=1;perimeter=rhombusPerimeter;whiteSpace=wrap;html=1;align=center;fontSize=16;" vertex="1" parent="1">
          <mxGeometry x="487" y="11" width="120" height="60" as="geometry" />
        </mxCell>
        <mxCell id="j5BsTnonX4kaGbaKC7nh-57" value="" style="endArrow=none;html=1;rounded=0;fontSize=12;startSize=8;endSize=8;curved=1;exitX=1;exitY=0.5;exitDx=0;exitDy=0;entryX=0;entryY=0.5;entryDx=0;entryDy=0;" edge="1" parent="1" source="j5BsTnonX4kaGbaKC7nh-27" target="j5BsTnonX4kaGbaKC7nh-56">
          <mxGeometry relative="1" as="geometry">
            <mxPoint x="560" y="148" as="sourcePoint" />
            <mxPoint x="720" y="148" as="targetPoint" />
          </mxGeometry>
        </mxCell>
        <mxCell id="j5BsTnonX4kaGbaKC7nh-58" value="1" style="resizable=0;html=1;whiteSpace=wrap;align=right;verticalAlign=bottom;fontSize=16;" connectable="0" vertex="1" parent="j5BsTnonX4kaGbaKC7nh-57">
          <mxGeometry x="1" relative="1" as="geometry" />
        </mxCell>
        <mxCell id="j5BsTnonX4kaGbaKC7nh-59" value="" style="endArrow=none;html=1;rounded=0;fontSize=12;startSize=8;endSize=8;curved=1;exitX=0.5;exitY=1;exitDx=0;exitDy=0;" edge="1" parent="1" source="j5BsTnonX4kaGbaKC7nh-56">
          <mxGeometry relative="1" as="geometry">
            <mxPoint x="560" y="148" as="sourcePoint" />
            <mxPoint x="547" y="160" as="targetPoint" />
          </mxGeometry>
        </mxCell>
        <mxCell id="j5BsTnonX4kaGbaKC7nh-60" value="N" style="resizable=0;html=1;whiteSpace=wrap;align=right;verticalAlign=bottom;fontSize=16;" connectable="0" vertex="1" parent="j5BsTnonX4kaGbaKC7nh-59">
          <mxGeometry x="1" relative="1" as="geometry" />
        </mxCell>
        <mxCell id="j5BsTnonX4kaGbaKC7nh-61" value="Dependant" style="shape=ext;margin=3;double=1;whiteSpace=wrap;html=1;align=center;fontSize=16;" vertex="1" parent="1">
          <mxGeometry x="455" y="162" width="184" height="72" as="geometry" />
        </mxCell>
        <mxCell id="j5BsTnonX4kaGbaKC7nh-62" value="Sex" style="ellipse;whiteSpace=wrap;html=1;align=center;fontSize=16;" vertex="1" parent="1">
          <mxGeometry x="822" y="129" width="100" height="40" as="geometry" />
        </mxCell>
        <mxCell id="j5BsTnonX4kaGbaKC7nh-63" value="Name" style="ellipse;whiteSpace=wrap;html=1;align=center;fontSize=16;" vertex="1" parent="1">
          <mxGeometry x="739" y="27" width="100" height="40" as="geometry" />
        </mxCell>
        <mxCell id="j5BsTnonX4kaGbaKC7nh-64" value="Relationship" style="ellipse;whiteSpace=wrap;html=1;align=center;fontSize=16;" vertex="1" parent="1">
          <mxGeometry x="711" y="355" width="100" height="40" as="geometry" />
        </mxCell>
        <mxCell id="j5BsTnonX4kaGbaKC7nh-65" value="Birthdate" style="ellipse;whiteSpace=wrap;html=1;align=center;fontSize=16;" vertex="1" parent="1">
          <mxGeometry x="811" y="265" width="100" height="40" as="geometry" />
        </mxCell>
        <mxCell id="j5BsTnonX4kaGbaKC7nh-67" value="" style="endArrow=none;html=1;rounded=0;fontSize=12;startSize=8;endSize=8;curved=1;entryX=0;entryY=0;entryDx=0;entryDy=0;exitX=1;exitY=1;exitDx=0;exitDy=0;" edge="1" parent="1" source="j5BsTnonX4kaGbaKC7nh-61" target="j5BsTnonX4kaGbaKC7nh-64">
          <mxGeometry relative="1" as="geometry">
            <mxPoint x="560" y="148" as="sourcePoint" />
            <mxPoint x="720" y="148" as="targetPoint" />
          </mxGeometry>
        </mxCell>
        <mxCell id="j5BsTnonX4kaGbaKC7nh-69" value="" style="endArrow=none;html=1;rounded=0;fontSize=12;startSize=8;endSize=8;curved=1;entryX=0;entryY=0.5;entryDx=0;entryDy=0;exitX=1;exitY=0.75;exitDx=0;exitDy=0;" edge="1" parent="1" source="j5BsTnonX4kaGbaKC7nh-61" target="j5BsTnonX4kaGbaKC7nh-65">
          <mxGeometry relative="1" as="geometry">
            <mxPoint x="560" y="148" as="sourcePoint" />
            <mxPoint x="720" y="148" as="targetPoint" />
          </mxGeometry>
        </mxCell>
        <mxCell id="j5BsTnonX4kaGbaKC7nh-70" value="" style="endArrow=none;html=1;rounded=0;fontSize=12;startSize=8;endSize=8;curved=1;entryX=0;entryY=0.5;entryDx=0;entryDy=0;exitX=1;exitY=0.25;exitDx=0;exitDy=0;" edge="1" parent="1" source="j5BsTnonX4kaGbaKC7nh-61" target="j5BsTnonX4kaGbaKC7nh-62">
          <mxGeometry relative="1" as="geometry">
            <mxPoint x="560" y="148" as="sourcePoint" />
            <mxPoint x="720" y="148" as="targetPoint" />
          </mxGeometry>
        </mxCell>
        <mxCell id="j5BsTnonX4kaGbaKC7nh-71" value="" style="endArrow=none;html=1;rounded=0;fontSize=12;startSize=8;endSize=8;curved=1;entryX=0;entryY=0.5;entryDx=0;entryDy=0;exitX=1;exitY=0;exitDx=0;exitDy=0;" edge="1" parent="1" source="j5BsTnonX4kaGbaKC7nh-61" target="j5BsTnonX4kaGbaKC7nh-63">
          <mxGeometry relative="1" as="geometry">
            <mxPoint x="560" y="148" as="sourcePoint" />
            <mxPoint x="720" y="148" as="targetPoint" />
          </mxGeometry>
        </mxCell>
        <mxCell id="j5BsTnonX4kaGbaKC7nh-75" value="Pj Name" style="ellipse;whiteSpace=wrap;html=1;align=center;fontStyle=4;fontSize=16;" vertex="1" parent="1">
          <mxGeometry x="-27" y="137" width="100" height="40" as="geometry" />
        </mxCell>
        <mxCell id="j5BsTnonX4kaGbaKC7nh-76" value="Pj Name" style="ellipse;whiteSpace=wrap;html=1;align=center;fontSize=16;" vertex="1" parent="1">
          <mxGeometry x="-215" y="145" width="100" height="40" as="geometry" />
        </mxCell>
        <mxCell id="j5BsTnonX4kaGbaKC7nh-77" value="Pj Location" style="ellipse;whiteSpace=wrap;html=1;align=center;fontSize=16;" vertex="1" parent="1">
          <mxGeometry x="-241" y="299" width="100" height="40" as="geometry" />
        </mxCell>
        <mxCell id="j5BsTnonX4kaGbaKC7nh-79" value="HRS Per Week" style="ellipse;whiteSpace=wrap;html=1;align=center;fontSize=16;" vertex="1" parent="1">
          <mxGeometry x="115" y="381" width="100" height="40" as="geometry" />
        </mxCell>
        <mxCell id="j5BsTnonX4kaGbaKC7nh-80" value="Salary" style="ellipse;whiteSpace=wrap;html=1;align=center;fontSize=16;" vertex="1" parent="1">
          <mxGeometry x="219" y="-187" width="100" height="40" as="geometry" />
        </mxCell>
        <mxCell id="j5BsTnonX4kaGbaKC7nh-81" value="" style="endArrow=none;html=1;rounded=0;fontSize=12;startSize=8;endSize=8;curved=1;exitX=0.33;exitY=0.967;exitDx=0;exitDy=0;exitPerimeter=0;entryX=0.69;entryY=0.026;entryDx=0;entryDy=0;entryPerimeter=0;" edge="1" parent="1" source="j5BsTnonX4kaGbaKC7nh-80" target="j5BsTnonX4kaGbaKC7nh-27">
          <mxGeometry relative="1" as="geometry">
            <mxPoint x="371" y="148" as="sourcePoint" />
            <mxPoint x="531" y="148" as="targetPoint" />
          </mxGeometry>
        </mxCell>
        <mxCell id="j5BsTnonX4kaGbaKC7nh-82" value="" style="endArrow=none;html=1;rounded=0;fontSize=12;startSize=8;endSize=8;curved=1;entryX=0.5;entryY=1;entryDx=0;entryDy=0;" edge="1" parent="1" target="j5BsTnonX4kaGbaKC7nh-26">
          <mxGeometry relative="1" as="geometry">
            <mxPoint x="165" y="376" as="sourcePoint" />
            <mxPoint x="248" y="168" as="targetPoint" />
          </mxGeometry>
        </mxCell>
        <mxCell id="j5BsTnonX4kaGbaKC7nh-83" value="" style="endArrow=none;html=1;rounded=0;fontSize=12;startSize=8;endSize=8;curved=1;exitX=0.5;exitY=1;exitDx=0;exitDy=0;entryX=0;entryY=0.25;entryDx=0;entryDy=0;" edge="1" parent="1" source="j5BsTnonX4kaGbaKC7nh-76" target="j5BsTnonX4kaGbaKC7nh-25">
          <mxGeometry relative="1" as="geometry">
            <mxPoint x="-60" y="168" as="sourcePoint" />
            <mxPoint x="100" y="168" as="targetPoint" />
          </mxGeometry>
        </mxCell>
        <mxCell id="j5BsTnonX4kaGbaKC7nh-84" value="" style="endArrow=none;html=1;rounded=0;fontSize=12;startSize=8;endSize=8;curved=1;exitX=0.5;exitY=1;exitDx=0;exitDy=0;" edge="1" parent="1" source="j5BsTnonX4kaGbaKC7nh-75">
          <mxGeometry relative="1" as="geometry">
            <mxPoint x="-60" y="168" as="sourcePoint" />
            <mxPoint x="-11" y="210" as="targetPoint" />
          </mxGeometry>
        </mxCell>
        <mxCell id="j5BsTnonX4kaGbaKC7nh-85" value="" style="endArrow=none;html=1;rounded=0;fontSize=12;startSize=8;endSize=8;curved=1;exitX=0;exitY=1;exitDx=0;exitDy=0;" edge="1" parent="1" source="j5BsTnonX4kaGbaKC7nh-25" target="j5BsTnonX4kaGbaKC7nh-77">
          <mxGeometry relative="1" as="geometry">
            <mxPoint x="-60" y="168" as="sourcePoint" />
            <mxPoint x="100" y="168" as="targetPoint" />
          </mxGeometry>
        </mxCell>
      </root>
    </mxGraphModel>
  </diagram>
</mxfile>
